<svg xmlns:xlink="http://www.w3.org/1999/xlink" width="275" height="123" viewBox="0 0 275 123" fill="none" xmlns="http://www.w3.org/2000/svg" class="footer_brand__F8_LQ"><path d="M24.5023 79.396C32.4833 79.396 35.7395 84.8306 36.1334 89.9177L36.1624 90.358H47.1447L47.0809 89.8221C45.7426 77.9215 36.8432 70.2417 24.398 70.2417C9.80612 70.2417 0 80.7778 0 96.4531C0 112.128 9.84667 122.665 24.4936 122.665C36.9996 122.665 46.2872 114.446 47.0809 102.682L47.1099 102.172H36.1479L36.119 102.618C35.9451 105.173 34.5749 113.519 24.4936 113.519C14.4122 113.519 10.962 104.701 10.962 96.4589C10.962 88.2172 14.5165 79.3989 24.4936 79.3989L24.5023 79.3873V79.3931V79.396Z" fill="#000030"></path><path d="M79.7786 70.7836L79.3644 70.7286C77.8058 70.5229 76.5543 70.4331 74.9205 70.4331C69.4569 70.4331 65.1926 73.4633 62.2406 79.4339V71.5803H51.2786V121.24H62.2406V95.8884C62.2406 90.9637 64.0251 86.7515 67.2581 84.011C70.3636 81.3806 74.5468 80.358 79.1094 81.1025H79.7786V70.772V70.7807V70.7836Z" fill="#000030"></path><path d="M105.188 70.2504C90.1323 70.2504 80.7897 80.2912 80.7897 96.4618C80.7897 112.633 90.5552 122.673 105.663 122.673C117.233 122.673 125.498 116.604 128.331 106.028L128.491 105.434H117.508L117.404 105.773C117.03 107.073 114.681 113.531 105.379 113.531C97.5021 113.531 91.9689 107.798 91.7488 99.521H129.113V99.0401C129.113 80.4766 120.617 70.2533 105.185 70.2533V70.2417L105.191 70.2475L105.188 70.2504ZM91.7575 91.1228C92.0037 84.1412 97.5716 79.1121 105.188 79.1121C112.804 79.1121 117.914 84.0253 118.149 91.1228H91.7575Z" fill="#000030"></path><path d="M170.041 76.7862C167.816 74.008 163.349 70.2478 155.455 70.2478C142.17 70.2478 133.247 80.784 133.247 96.4593C133.247 112.135 142.176 122.671 155.455 122.671C163.068 122.671 167.692 118.951 170.041 116.242V121.245H181.003V56.7104H170.041V76.7833V76.7862ZM157.17 113.522C148.219 113.522 144.203 104.95 144.203 96.4622C144.203 87.9741 148.213 79.4021 157.17 79.4021C165.047 79.4021 169.946 85.9405 169.946 96.4622C169.946 106.984 165.059 113.522 157.17 113.522Z" fill="#000030"></path><path d="M214.932 56.7133H203.875V108.279C203.875 118.235 207.843 122.671 216.746 122.671C219.286 122.671 221.494 122.424 223.713 121.9L224.078 121.81V112.734L223.577 112.763C219.953 112.978 217.452 112.867 216.169 111.659C215.323 110.866 214.923 109.516 214.923 107.43V82.0615H224.075V71.5804H214.923V56.7104V56.7191L214.929 56.7133H214.932Z" fill="#000030"></path><path d="M250.031 70.2505C234.857 70.2505 225.06 80.5433 225.06 96.4619C225.06 112.381 234.863 122.673 250.031 122.673C265.2 122.673 275 112.381 275 96.4619C275 80.5433 265.197 70.2505 250.031 70.2505ZM249.762 113.522C241.109 113.522 235.752 106.984 235.752 96.4619C235.752 85.9403 241.12 79.4019 249.762 79.4019C258.404 79.4019 263.769 85.9403 263.769 96.4619C263.769 106.984 258.401 113.522 249.762 113.522Z" fill="#000030"></path><path d="M197.924 71.5801H186.962V121.239H197.924V71.5801Z" fill="#000030"></path><path d="M197.91 56.7129H186.959V67.6633H197.91V56.7129Z" fill="#000030"></path><path d="M118.858 56.7393H94.2401V65.1259H118.858V56.7393Z" fill="#000030"></path><path d="M28.0655 0C19.7021 0 14.6556 3.28802 12.0715 6.20233V1.20802H1.10374V50.8788H12.0715V21.2432C12.0715 14.1399 17.2397 9.54249 24.9426 9.54249C31.1449 9.54249 34.2997 13.0159 34.2997 19.873V50.8788H45.2617V17.2339C45.2617 6.45147 38.7986 0 28.0684 0H28.0655Z" fill="#000030"></path><path d="M73.8023 0C58.7469 0 49.4043 10.0466 49.4043 26.2114C49.4043 42.3763 59.1699 52.4229 74.2774 52.4229C85.8477 52.4229 94.1127 46.3538 96.9459 35.7771L97.1052 35.1774H86.1229L86.0186 35.5222C85.6449 36.8229 83.2955 43.2802 73.9935 43.2802C66.1167 43.2802 60.572 37.5471 60.3663 29.2706H97.7309V28.7897C97.7251 10.2262 89.2284 0.00869044 73.8023 0.00869044V0ZM60.3692 20.8782C60.6154 13.8966 66.1833 8.86751 73.7994 8.86751C81.4154 8.86751 86.5256 13.7807 86.7602 20.8782H60.3692Z" fill="#000030"></path><path d="M126.836 0C111.665 0 101.868 10.2928 101.868 26.2114C101.868 42.1301 111.674 52.4229 126.836 52.4229C141.999 52.4229 151.808 42.1301 151.808 26.2114C151.808 10.2928 142.002 0 126.836 0ZM126.836 43.2715C118.195 43.2715 112.827 36.7331 112.827 26.2114C112.827 15.6898 118.195 9.15141 126.836 9.15141C135.478 9.15141 140.846 15.6898 140.846 26.2114C140.846 36.7331 135.478 43.2715 126.836 43.2715Z" fill="#000030"></path></svg>