<svg width="290" height="44" viewBox="0 0 290 44" fill="none" xmlns="http://www.w3.org/2000/svg">
<g clip-path="url(#clip0_2541_468)">
<path d="M125.584 14.943C130.816 14.943 132.947 18.521 133.206 21.8714L133.225 22.1602H140.42L140.378 21.8083C139.501 13.9715 133.67 8.91528 125.514 8.91528C115.953 8.91528 109.528 15.8533 109.528 26.1761C109.528 36.499 115.98 43.437 125.576 43.437C133.771 43.437 139.857 38.0251 140.378 30.2781L140.399 29.9416H133.217L133.196 30.2341C133.082 31.917 132.184 37.4131 125.576 37.4131C118.969 37.4131 116.711 31.6072 116.711 26.18C116.711 20.7527 119.039 14.9468 125.576 14.9468L125.584 14.9411V14.9449V14.943Z" fill="#000030"/>
<path d="M161.811 9.27095L161.539 9.23461C160.517 9.09884 159.699 9.03955 158.628 9.03955C155.047 9.03955 152.254 11.0342 150.317 14.9679V9.79684H143.135V42.498H150.317V25.8032C150.317 22.5618 151.487 19.787 153.607 17.9817C155.641 16.251 158.382 15.576 161.373 16.0655H161.813V9.26139V9.26712L161.811 9.27095Z" fill="#000030"/>
<path d="M178.454 8.91544C168.59 8.91544 162.467 15.5284 162.467 26.1763C162.467 36.8243 168.867 43.4372 178.766 43.4372C186.348 43.4372 191.763 39.4404 193.62 32.4756L193.724 32.0836H186.529L186.46 32.3073C186.215 33.1641 184.676 37.4152 178.58 37.4152C173.418 37.4152 169.792 33.6402 169.649 28.1881H194.131V27.8726C194.131 15.6469 188.563 8.91735 178.452 8.91735V8.91162L178.456 8.91544H178.454ZM169.653 22.6653C169.815 18.0661 173.462 14.7558 178.454 14.7558C183.447 14.7558 186.793 17.9915 186.947 22.6653H169.651H169.653Z" fill="#000030"/>
<path d="M220.952 13.2221C219.495 11.392 216.566 8.9174 211.395 8.9174C202.689 8.9174 196.841 15.8554 196.841 26.1782C196.841 36.5011 202.691 43.4391 211.395 43.4391C216.382 43.4391 219.413 40.9894 220.952 39.2051V42.5001H228.134V0.00585938H220.952V13.224V13.2202V13.2221ZM212.518 37.4114C206.652 37.4114 204.023 31.7661 204.023 26.1782C204.023 20.5904 206.65 14.9451 212.518 14.9451C217.679 14.9451 220.889 19.2498 220.889 26.1782C220.889 33.1067 217.687 37.4114 212.518 37.4114Z" fill="#000030"/>
<path d="M250.371 0.00573754H243.126V33.9614C243.126 40.5188 245.725 43.4371 251.56 43.4371C253.223 43.4371 254.673 43.2764 256.126 42.9303L256.366 42.871V36.893L256.037 36.9121C253.663 37.0537 252.025 36.981 251.184 36.1854C250.632 35.6615 250.367 34.7741 250.367 33.4011V16.6967H256.366V9.79504H250.367V0V0.00573754H250.371Z" fill="#000030"/>
<path d="M273.369 8.91528C263.425 8.91528 257.005 15.6927 257.005 26.1761C257.005 36.6596 263.428 43.437 273.369 43.437C283.31 43.437 289.729 36.6596 289.729 26.1761C289.729 15.6927 283.306 8.91528 273.369 8.91528ZM273.192 37.4112C267.523 37.4112 264.011 33.1065 264.011 26.1781C264.011 19.2496 267.528 14.9449 273.192 14.9449C278.856 14.9449 282.37 19.2496 282.37 26.1781C282.37 33.1065 278.853 37.4112 273.192 37.4112Z" fill="#000030"/>
<path d="M239.224 9.79126H232.042V42.4925H239.224V9.79126Z" fill="#000030"/>
<path d="M239.216 0.00585938H232.04V7.21733H239.216V0.00585938Z" fill="#000030"/>
<path d="M187.417 0.0229492H171.286V5.54581H187.417V0.0229492Z" fill="#000030"/>
<path d="M17.6672 8.9021C12.1878 8.9021 8.87925 11.0688 7.18597 12.9869V9.69955H0V42.4064H7.18597V22.8909C7.18597 18.2133 10.5725 15.1861 15.62 15.1861C19.6839 15.1861 21.752 17.4732 21.752 21.9902V42.4083H28.9341V20.2538C28.9341 13.1513 24.6952 8.90401 17.6672 8.90401V8.9021Z" fill="#000030"/>
<path d="M47.6323 8.90207C37.7675 8.90207 31.645 15.515 31.645 26.1629C31.645 36.8109 38.0453 43.4238 47.9443 43.4238C55.526 43.4238 60.9407 39.427 62.7976 32.4622L62.9022 32.0664H55.7067L55.6382 32.2939C55.3928 33.1487 53.8536 37.4018 47.7578 37.4018C42.5962 37.4018 38.9642 33.6268 38.8291 28.1766H63.3132V27.8611C63.3132 15.6374 57.7444 8.90589 47.6342 8.90589V8.90015V8.90398L47.6323 8.90207ZM38.831 22.648C38.9908 18.0488 42.6399 14.7386 47.6323 14.7386C52.6246 14.7386 55.9712 17.9743 56.1253 22.648H38.831Z" fill="#000030"/>
<path d="M82.3884 8.9021C72.4476 8.9021 66.0283 15.6794 66.0283 26.1629C66.0283 36.6464 72.4552 43.4238 82.3884 43.4238C92.3217 43.4238 98.7524 36.6464 98.7524 26.1629C98.7524 15.6794 92.3293 8.9021 82.3884 8.9021ZM82.3884 37.398C76.7245 37.398 73.2086 33.0933 73.2086 26.1649C73.2086 19.2364 76.7264 14.9317 82.3884 14.9317C88.0505 14.9317 91.5702 19.2364 91.5702 26.1649C91.5702 33.0933 88.0524 37.398 82.3884 37.398Z" fill="#000030"/>
</g>
<defs>
<clipPath id="clip0_2541_468">
<rect width="290" height="44" fill="white"/>
</clipPath>
</defs>
</svg>
